%
M48
M72
T01C0.02165
T02C0.03200
T03C0.03346
T04C0.03543
T05C0.03937
T06C0.04000
T07C0.04016
T08C0.05906
T09C0.12500
%
T01
X115423Y76800
X125423Y56800
X215423Y81800
X239923Y82800
X280423Y91800
X305423Y66800
X250423Y121800
X241423Y121800
X274180Y126800
X285423Y156800
X360423Y151800
X210423Y156711
X205423Y151800
X175323Y136800
X170923Y141800
X210423Y181800
X157080Y260800
X136423Y260800
X115423Y281800
X145923Y310300
X155423Y321800
X410423Y286643
T02
X410423Y251800
X410423Y241800
X410423Y231800
X410423Y221800
X410423Y211800
X410423Y201800
X410423Y191800
X410423Y181800
X410423Y171800
X410423Y161800
X410423Y151800
X410423Y141800
X410423Y131800
X410423Y121800
X430423Y106800
X440423Y121800
X440423Y131800
X440423Y141800
X440423Y151800
X440423Y161800
X440423Y171800
X440423Y181800
X440423Y191800
X440423Y201800
X440423Y211800
X440423Y221800
X440423Y231800
X440423Y241800
X440423Y251800
X340423Y176800
X340423Y156800
X335423Y131800
X325423Y131800
X295423Y126800
X295423Y136800
X295423Y146800
X295423Y156800
X295423Y166800
X295423Y176800
X295423Y186800
X295423Y196800
X295423Y206800
X295423Y216800
X295423Y226800
X295423Y236800
X295423Y246800
X295423Y256800
X265423Y256800
X265423Y246800
X265423Y236800
X265423Y226800
X265423Y216800
X265423Y206800
X265423Y196800
X265423Y186800
X265423Y176800
X265423Y166800
X265423Y156800
X265423Y146800
X265423Y136800
X265423Y126800
X235423Y136800
X235423Y146800
X325423Y91800
X335423Y91800
X370423Y101800
X390423Y101800
X390423Y141800
X385423Y156800
X385423Y166800
X370423Y141800
X460423Y131800
X460423Y121800
X470423Y106800
X330423Y246800
X330423Y256800
X320423Y381800
X360423Y381800
X165423Y296800
X150423Y296800
X135423Y306800
X125423Y306800
X150423Y256800
X165423Y256800
T03
X109553Y277957
X109553Y297643
T04
X100423Y241643
X100423Y231800
X100423Y221957
T05
X185581Y281800
X205266Y281800
X325581Y351800
X345266Y351800
T06
X250423Y341800
X250423Y331800
X250423Y366800
X250423Y376800
X190423Y256800
X190423Y246800
X190423Y236800
X190423Y226800
X190423Y216800
X155423Y236800
X145423Y236800
X135423Y236800
X125423Y236800
X100423Y201800
X100423Y191800
X180423Y116800
X190423Y116800
X190423Y106800
X180423Y106800
X180423Y96800
X190423Y96800
X200423Y96800
X190423Y86800
X180423Y86800
X170423Y86800
X180423Y76800
X190423Y76800
X190423Y66800
X180423Y66800
X180423Y56800
X190423Y56800
X190423Y46800
X180423Y46800
X180423Y36800
X170423Y36800
X180423Y26800
X180423Y16800
X190423Y16800
X190423Y26800
X190423Y36800
X320423Y31800
X320423Y21800
X330423Y21800
X330423Y31800
X330423Y41800
X320423Y41800
X320423Y51800
X330423Y51800
X330423Y61800
X320423Y61800
X320423Y71800
X320423Y81800
X330423Y81800
X330423Y71800
X345423Y71800
X345423Y81800
X355423Y81800
X355423Y71800
X365423Y71800
X365423Y81800
X375423Y81800
X375423Y71800
X385423Y71800
X385423Y81800
X395423Y81800
X395423Y71800
X395423Y61800
X385423Y61800
X375423Y61800
X365423Y61800
X355423Y61800
X345423Y61800
X345423Y51800
X345423Y41800
X355423Y41800
X355423Y51800
X365423Y51800
X365423Y41800
X375423Y41800
X375423Y51800
X385423Y51800
X385423Y41800
X385423Y31800
X375423Y31800
X365423Y31800
X355423Y31800
X345423Y31800
X345423Y21800
X355423Y21800
X365423Y21800
X375423Y21800
X385423Y21800
X385423Y11800
X375423Y11800
X365423Y11800
X355423Y11800
X345423Y11800
X330423Y11800
X320423Y11800
X395423Y11800
X395423Y21800
X395423Y31800
X395423Y41800
X395423Y51800
X405423Y51800
X405423Y41800
X415423Y41800
X415423Y51800
X425423Y51800
X425423Y41800
X435423Y41800
X435423Y51800
X435423Y61800
X425423Y61800
X415423Y61800
X405423Y61800
X405423Y71800
X405423Y81800
X415423Y81800
X415423Y71800
X425423Y71800
X425423Y81800
X435423Y81800
X435423Y71800
X450423Y71800
X450423Y81800
X460423Y81800
X460423Y71800
X460423Y61800
X450423Y61800
X450423Y51800
X450423Y41800
X460423Y41800
X460423Y51800
X460423Y31800
X450423Y31800
X450423Y21800
X460423Y21800
X460423Y11800
X450423Y11800
X435423Y11800
X425423Y11800
X415423Y11800
X405423Y11800
X405423Y21800
X405423Y31800
X415423Y31800
X415423Y21800
X425423Y21800
X425423Y31800
X435423Y31800
X435423Y21800
X385423Y181800
X385423Y191800
X385423Y201800
X385423Y211800
X385423Y221800
X385423Y231800
X385423Y241800
X460423Y241800
X460423Y231800
X460423Y251800
T07
X298455Y326800
X298455Y336800
X298455Y346800
X298455Y356800
X298455Y366800
X298455Y376800
X298455Y386800
X272392Y386800
X272392Y376800
X272392Y366800
X272392Y356800
X272392Y346800
X272392Y336800
X272392Y326800
X120423Y161800
X120423Y151800
X110423Y146800
X110423Y136800
X120423Y131800
X120423Y141800
X110423Y126800
X110423Y116800
X120423Y111800
X120423Y121800
X110423Y106800
X120423Y101800
X110423Y156800
T08
X98923Y274020
X98923Y301580
T09
X95423Y321800
X95423Y386800
X465423Y386800
X465423Y316800
M30
